<?xml version="1.0" encoding="UTF-8" standalone="no"?>
<!DOCTYPE svg PUBLIC "-//W3C//DTD SVG 1.1//EN"
 "http://www.w3.org/Graphics/SVG/1.1/DTD/svg11.dtd">
<!-- Generated by graphviz version 2.36.0 (20140111.2315)
 -->
<!-- Title: neo4j_graph_graph Pages: 1 -->
<svg width="334pt" height="350pt"
 viewBox="0.00 0.00 334.00 350.00" xmlns="http://www.w3.org/2000/svg" xmlns:xlink="http://www.w3.org/1999/xlink">
<g id="graph0" class="graph" transform="scale(1 1) rotate(0) translate(4 346)">
<title>neo4j_graph_graph</title>
<polygon fill="white" stroke="none" points="-4,4 -4,-346 330,-346 330,4 -4,4"/>
<text text-anchor="middle" x="163" y="-7.8" font-family="Times,serif" font-size="14.00">Neo4jのグラフのグラフ</text>
<!-- Rel1 -->
<g id="node1" class="node"><title>Rel1</title>
<polygon fill="none" stroke="black" points="0,-77.5 0,-238.5 152,-238.5 152,-77.5 0,-77.5"/>
<text text-anchor="middle" x="21" y="-154.3" font-family="Times,serif" font-size="14.00">Rel1</text>
<polyline fill="none" stroke="black" points="42,-77.5 42,-238.5 "/>
<text text-anchor="middle" x="97" y="-223.3" font-family="Times,serif" font-size="14.00">firstNodeId</text>
<polyline fill="none" stroke="black" points="42,-215.5 152,-215.5 "/>
<text text-anchor="middle" x="97" y="-200.3" font-family="Times,serif" font-size="14.00">secondNodeId</text>
<polyline fill="none" stroke="black" points="42,-192.5 152,-192.5 "/>
<text text-anchor="middle" x="97" y="-177.3" font-family="Times,serif" font-size="14.00">firstPrevRelId</text>
<polyline fill="none" stroke="black" points="42,-169.5 152,-169.5 "/>
<text text-anchor="middle" x="97" y="-154.3" font-family="Times,serif" font-size="14.00">firstNextRelId</text>
<polyline fill="none" stroke="black" points="42,-146.5 152,-146.5 "/>
<text text-anchor="middle" x="97" y="-131.3" font-family="Times,serif" font-size="14.00">secondPrevRelId</text>
<polyline fill="none" stroke="black" points="42,-123.5 152,-123.5 "/>
<text text-anchor="middle" x="97" y="-108.3" font-family="Times,serif" font-size="14.00">secondNextRelId</text>
<polyline fill="none" stroke="black" points="42,-100.5 152,-100.5 "/>
<text text-anchor="middle" x="97" y="-85.3" font-family="Times,serif" font-size="14.00">...</text>
</g>
<!-- NodeA -->
<g id="node2" class="node"><title>NodeA</title>
<polygon fill="none" stroke="black" points="208,-296 208,-342 306,-342 306,-296 208,-296"/>
<text text-anchor="middle" x="257" y="-326.8" font-family="Times,serif" font-size="14.00">NodeA</text>
<polyline fill="none" stroke="black" points="208,-319 306,-319 "/>
<text text-anchor="middle" x="243" y="-303.8" font-family="Times,serif" font-size="14.00">nextRelId</text>
<polyline fill="none" stroke="black" points="278,-296 278,-319 "/>
<text text-anchor="middle" x="292" y="-303.8" font-family="Times,serif" font-size="14.00">...</text>
</g>
<!-- Rel1&#45;&gt;NodeA -->
<g id="edge1" class="edge"><title>Rel1:firstNode&#45;&gt;NodeA:nextRel</title>
<path fill="none" stroke="black" d="M161.935,-228.821C187.372,-239.566 171.621,-294.575 197.155,-305.216"/>
<polygon fill="black" stroke="black" points="162.467,-225.361 152,-227 161.205,-232.246 162.467,-225.361"/>
<polygon fill="black" stroke="black" points="196.536,-308.661 207,-307 197.784,-301.773 196.536,-308.661"/>
</g>
<!-- NodeB -->
<g id="node3" class="node"><title>NodeB</title>
<polygon fill="none" stroke="black" points="208,-231 208,-277 306,-277 306,-231 208,-231"/>
<text text-anchor="middle" x="257" y="-261.8" font-family="Times,serif" font-size="14.00">NodeB</text>
<polyline fill="none" stroke="black" points="208,-254 306,-254 "/>
<text text-anchor="middle" x="243" y="-238.8" font-family="Times,serif" font-size="14.00">nextRelId</text>
<polyline fill="none" stroke="black" points="278,-231 278,-254 "/>
<text text-anchor="middle" x="292" y="-238.8" font-family="Times,serif" font-size="14.00">...</text>
</g>
<!-- Rel1&#45;&gt;NodeB -->
<g id="edge2" class="edge"><title>Rel1:secondNode&#45;&gt;NodeB:nextRel</title>
<path fill="none" stroke="black" d="M161.935,-205.732C178.288,-212.062 180.701,-233.911 197.039,-240.258"/>
<polygon fill="black" stroke="black" points="162.452,-202.269 152,-204 161.25,-209.165 162.452,-202.269"/>
<polygon fill="black" stroke="black" points="196.547,-243.725 207,-242 197.752,-236.83 196.547,-243.725"/>
</g>
<!-- N1 -->
<g id="node4" class="node"><title>N1</title>
<ellipse fill="none" stroke="black" stroke-dasharray="5,2" cx="257" cy="-202" rx="18" ry="11"/>
<text text-anchor="middle" x="257" y="-198.3" font-family="Times,serif" font-size="14.00">null</text>
</g>
<!-- Rel1&#45;&gt;N1 -->
<g id="edge3" class="edge"><title>Rel1:firstPrevRel&#45;&gt;N1</title>
<path fill="none" stroke="black" stroke-dasharray="5,2" d="M152,-181C179.576,-181 210.466,-188.182 231.363,-194.145"/>
<polygon fill="black" stroke="black" points="230.452,-197.526 241.035,-197.023 232.448,-190.817 230.452,-197.526"/>
</g>
<!-- N2 -->
<g id="node5" class="node"><title>N2</title>
<ellipse fill="none" stroke="black" stroke-dasharray="5,2" cx="257" cy="-98" rx="18" ry="11"/>
<text text-anchor="middle" x="257" y="-94.3" font-family="Times,serif" font-size="14.00">null</text>
</g>
<!-- Rel1&#45;&gt;N2 -->
<g id="edge5" class="edge"><title>Rel1:secondPrevRel&#45;&gt;N2</title>
<path fill="none" stroke="black" stroke-dasharray="5,2" d="M152,-135C169.694,-135 171.463,-124.293 188,-118 201.657,-112.803 217.276,-108.124 230.098,-104.601"/>
<polygon fill="black" stroke="black" points="231.348,-107.889 240.106,-101.927 229.541,-101.127 231.348,-107.889"/>
</g>
<!-- RelA2 -->
<g id="node6" class="node"><title>RelA2</title>
<polygon fill="none" stroke="black" points="196.5,-127 196.5,-173 317.5,-173 317.5,-127 196.5,-127"/>
<text text-anchor="middle" x="257" y="-157.8" font-family="Times,serif" font-size="14.00">RelA2</text>
<polyline fill="none" stroke="black" points="196.5,-150 317.5,-150 "/>
<text text-anchor="middle" x="243" y="-134.8" font-family="Times,serif" font-size="14.00">firstPrevRelId</text>
<polyline fill="none" stroke="black" points="289.5,-127 289.5,-150 "/>
<text text-anchor="middle" x="303.5" y="-134.8" font-family="Times,serif" font-size="14.00">...</text>
</g>
<!-- Rel1&#45;&gt;RelA2 -->
<g id="edge4" class="edge"><title>Rel1:firstNextRel&#45;&gt;RelA2:firstPrevRel</title>
<path fill="none" stroke="black" d="M161.989,-156.154C171.266,-152.364 175.649,-143.736 184.88,-139.9"/>
<polygon fill="black" stroke="black" points="161.198,-152.741 152,-158 162.47,-159.625 161.198,-152.741"/>
<polygon fill="black" stroke="black" points="185.817,-143.285 195,-138 184.526,-136.405 185.817,-143.285"/>
</g>
<!-- RelB2 -->
<g id="node7" class="node"><title>RelB2</title>
<polygon fill="none" stroke="black" points="188.5,-23 188.5,-69 325.5,-69 325.5,-23 188.5,-23"/>
<text text-anchor="middle" x="257" y="-53.8" font-family="Times,serif" font-size="14.00">RelB2</text>
<polyline fill="none" stroke="black" points="188.5,-46 325.5,-46 "/>
<text text-anchor="middle" x="243" y="-30.8" font-family="Times,serif" font-size="14.00">secondPrevRelId</text>
<polyline fill="none" stroke="black" points="297.5,-23 297.5,-46 "/>
<text text-anchor="middle" x="311.5" y="-30.8" font-family="Times,serif" font-size="14.00">...</text>
</g>
<!-- Rel1&#45;&gt;RelB2 -->
<g id="edge6" class="edge"><title>Rel1:secondNextRel&#45;&gt;RelB2:secondPrevRel</title>
<path fill="none" stroke="black" d="M161.915,-109.405C179.744,-97.5624 160.309,-48.7124 177.952,-36.6849"/>
<polygon fill="black" stroke="black" points="160.788,-106.082 152,-112 162.56,-112.854 160.788,-106.082"/>
<polygon fill="black" stroke="black" points="179.242,-39.9629 188,-34 177.435,-33.2002 179.242,-39.9629"/>
</g>
</g>
</svg>
