<?xml version="1.0" encoding="UTF-8" standalone="no"?>
<!DOCTYPE svg PUBLIC "-//W3C//DTD SVG 1.1//EN"
 "http://www.w3.org/Graphics/SVG/1.1/DTD/svg11.dtd">
<!-- Generated by graphviz version 2.36.0 (20140111.2315)
 -->
<!-- Title: namecard1 Pages: 1 -->
<svg width="213pt" height="219pt"
 viewBox="0.00 0.00 212.64 219.05" xmlns="http://www.w3.org/2000/svg" xmlns:xlink="http://www.w3.org/1999/xlink">
<g id="graph0" class="graph" transform="scale(1 1) rotate(0) translate(4 215.051)">
<title>namecard1</title>
<polygon fill="white" stroke="none" points="-4,4 -4,-215.051 208.638,-215.051 208.638,4 -4,4"/>
<text text-anchor="middle" x="102.319" y="-7.8" font-family="Times,serif" font-size="14.00">名刺交換の記録を表すグラフ</text>
<!-- Fさん -->
<g id="node1" class="node"><title>Fさん</title>
<ellipse fill="none" stroke="black" cx="98.6913" cy="-62.0223" rx="35.9954" ry="18"/>
<text text-anchor="middle" x="98.6913" y="-58.3223" font-family="Times,serif" font-size="14.00">Fさん</text>
</g>
<!-- Bさん -->
<g id="node2" class="node"><title>Bさん</title>
<ellipse fill="none" stroke="black" cx="168.242" cy="-41" rx="36.2938" ry="18"/>
<text text-anchor="middle" x="168.242" y="-37.3" font-family="Times,serif" font-size="14.00">Bさん</text>
</g>
<!-- Fさん&#45;&#45;Bさん -->
<g id="edge1" class="edge"><title>Fさん&#45;&#45;Bさん</title>
<path fill="none" stroke="black" d="M129.399,-52.7404C131.874,-51.9925 134.376,-51.2361 136.855,-50.4868"/>
</g>
<!-- Eさん -->
<g id="node5" class="node"><title>Eさん</title>
<ellipse fill="none" stroke="black" cx="47.6663" cy="-121.371" rx="36.2938" ry="18"/>
<text text-anchor="middle" x="47.6663" y="-117.671" font-family="Times,serif" font-size="14.00">Eさん</text>
</g>
<!-- Fさん&#45;&#45;Eさん -->
<g id="edge4" class="edge"><title>Fさん&#45;&#45;Eさん</title>
<path fill="none" stroke="black" d="M84.478,-78.5544C77.5188,-86.6489 69.154,-96.3783 62.1579,-104.516"/>
</g>
<!-- Cさん -->
<g id="node3" class="node"><title>Cさん</title>
<ellipse fill="none" stroke="black" cx="157.231" cy="-112.838" rx="36.2938" ry="18"/>
<text text-anchor="middle" x="157.231" y="-109.138" font-family="Times,serif" font-size="14.00">Cさん</text>
</g>
<!-- Bさん&#45;&#45;Cさん -->
<g id="edge2" class="edge"><title>Bさん&#45;&#45;Cさん</title>
<path fill="none" stroke="black" d="M165.463,-59.1278C163.807,-69.9348 161.71,-83.6164 160.047,-94.4663"/>
</g>
<!-- Cさん&#45;&#45;Fさん -->
<g id="edge7" class="edge"><title>Cさん&#45;&#45;Fさん</title>
<path fill="none" stroke="black" d="M139.03,-97.0383C131.914,-90.8617 123.775,-83.7967 116.68,-77.6379"/>
</g>
<!-- Dさん -->
<g id="node4" class="node"><title>Dさん</title>
<ellipse fill="none" stroke="black" cx="106.14" cy="-172.259" rx="36.2938" ry="18"/>
<text text-anchor="middle" x="106.14" y="-168.559" font-family="Times,serif" font-size="14.00">Dさん</text>
</g>
<!-- Cさん&#45;&#45;Dさん -->
<g id="edge3" class="edge"><title>Cさん&#45;&#45;Dさん</title>
<path fill="none" stroke="black" d="M142.727,-129.707C135.765,-137.804 127.447,-147.478 120.503,-155.554"/>
</g>
<!-- Dさん&#45;&#45;Eさん -->
<g id="edge8" class="edge"><title>Dさん&#45;&#45;Eさん</title>
<path fill="none" stroke="black" d="M87.9591,-156.437C80.9858,-150.368 73.0284,-143.443 66.0374,-137.359"/>
</g>
<!-- Aさん -->
<g id="node6" class="node"><title>Aさん</title>
<ellipse fill="none" stroke="black" cx="36.3968" cy="-193.051" rx="36.2938" ry="18"/>
<text text-anchor="middle" x="36.3968" y="-189.351" font-family="Times,serif" font-size="14.00">Aさん</text>
</g>
<!-- Eさん&#45;&#45;Aさん -->
<g id="edge5" class="edge"><title>Eさん&#45;&#45;Aさん</title>
<path fill="none" stroke="black" d="M44.8225,-139.459C43.1272,-150.242 40.9809,-163.894 39.2788,-174.72"/>
</g>
<!-- Aさん&#45;&#45;Dさん -->
<g id="edge6" class="edge"><title>Aさん&#45;&#45;Dさん</title>
<path fill="none" stroke="black" d="M67.5966,-183.749C69.9178,-183.057 72.2609,-182.359 74.5842,-181.666"/>
</g>
</g>
</svg>
