<?xml version="1.0" encoding="UTF-8" standalone="no"?>
<svg
     xmlns:dc="http://purl.org/dc/elements/1.1/"
     xmlns:cc="http://creativecommons.org/ns#"
     xmlns:rdf="http://www.w3.org/1999/02/22-rdf-syntax-ns#"
     xmlns:svg="http://www.w3.org/2000/svg"
     xmlns="http://www.w3.org/2000/svg"
     version="1.1"
     id="svg21267"
     viewBox="0 0 300 173.23853"
     height="173.23853"
     width="300">
    <defs
         id="defs21269">
        <clipPath
             clipPathUnits="userSpaceOnUse"
             id="clipPath20585">
            <path
                 d="m 35.901,745.305 123.684,0 0,71.073 -123.684,0 0,-71.073 z"
                 id="path20587" />
        </clipPath>
    </defs>
    <metadata
         id="metadata21272">
        <rdf:RDF>
            <cc:Work
                 rdf:about="">
                <dc:format>image/svg+xml</dc:format>
                <dc:type
                     rdf:resource="http://purl.org/dc/dcmitype/StillImage" />
                <dc:title></dc:title>
            </cc:Work>
        </rdf:RDF>
    </metadata>
    <g
         transform="translate(-144.02046,-308.88064)"
         id="layer1">
        <path
             d="m 145.02046,456.71965 3.76103,0 0,18.75697 -3.76103,0 0,-18.75697 z"
             style="fill:#595656;fill-opacity:1;fill-rule:nonzero;stroke:none"
             id="path20579" />
        <g
             id="g20583"
             clip-path="url(#clipPath20585)"
             transform="matrix(2.4093736,0,0,-2.4093736,58.521539,2276.84)">
            <g
                 id="g20589"
                 transform="translate(39.0006,753.3917)">
                <path
                     d="m 0,0 1.417,0 0,-0.781 0.021,0 c 0.469,0.659 1.104,0.915 1.885,0.915 1.361,0 1.952,-0.959 1.952,-2.253 l 0,-3.624 -1.495,0 0,3.066 c 0,0.703 -0.011,1.651 -0.97,1.651 -1.081,0 -1.316,-1.171 -1.316,-1.907 l 0,-2.81 L 0,-5.743 0,0"
                     style="fill:#595656;fill-opacity:1;fill-rule:nonzero;stroke:none"
                     id="path20591" />
            </g>
            <g
                 id="g20593"
                 transform="translate(46.3056,752.2986)">
                <path
                     d="m 0,0 -1.104,0 0,1.093 1.104,0 0,1.15 1.495,0.479 0,-1.629 1.327,0 0,-1.093 -1.327,0 0,-2.677 c 0,-0.49 0.134,-0.948 0.703,-0.948 0.267,0 0.524,0.056 0.68,0.156 L 2.923,-4.651 C 2.611,-4.74 2.264,-4.785 1.819,-4.785 0.647,-4.785 0,-4.06 0,-2.922 L 0,0"
                     style="fill:#595656;fill-opacity:1;fill-rule:nonzero;stroke:none"
                     id="path20595" />
            </g>
            <g
                 id="g20597"
                 transform="translate(53.7574,751.0826)">
                <path
                     d="M 0,0 C -0.044,0.727 -0.38,1.351 -1.216,1.351 -2.052,1.351 -2.476,0.77 -2.543,0 L 0,0 m 1.004,-3.111 c -0.548,-0.301 -1.172,-0.458 -1.974,-0.458 -1.897,0 -3.001,1.094 -3.001,2.978 0,1.663 0.882,3.034 2.665,3.034 2.131,0 2.734,-1.46 2.734,-3.468 l -3.971,0 c 0.067,-0.926 0.714,-1.45 1.639,-1.45 0.726,0 1.35,0.267 1.908,0.579 l 0,-1.215 z"
                     style="fill:#595656;fill-opacity:1;fill-rule:nonzero;stroke:none"
                     id="path20599" />
            </g>
            <g
                 id="g20601"
                 transform="translate(56.3901,753.3917)">
                <path
                     d="m 0,0 1.327,0 0,-1.305 0.023,0 c 0.066,0.536 0.68,1.439 1.573,1.439 0.145,0 0.301,0 0.457,-0.045 l 0,-1.505 c -0.134,0.077 -0.402,0.123 -0.669,0.123 -1.216,0 -1.216,-1.517 -1.216,-2.343 l 0,-2.107 L 0,-5.743 0,0"
                     style="fill:#595656;fill-opacity:1;fill-rule:nonzero;stroke:none"
                     id="path20603" />
            </g>
            <g
                 id="g20605"
                 transform="translate(60.6954,753.3917)">
                <path
                     d="m 0,0 1.417,0 0,-0.781 0.022,0 c 0.468,0.659 1.105,0.915 1.885,0.915 1.361,0 1.952,-0.959 1.952,-2.253 l 0,-3.624 -1.494,0 0,3.066 c 0,0.703 -0.013,1.651 -0.97,1.651 -1.083,0 -1.317,-1.171 -1.317,-1.907 l 0,-2.81 L 0,-5.743 0,0"
                     style="fill:#595656;fill-opacity:1;fill-rule:nonzero;stroke:none"
                     id="path20607" />
            </g>
            <g
                 id="g20609"
                 transform="translate(71.1131,751.0826)">
                <path
                     d="M 0,0 C -0.044,0.727 -0.379,1.351 -1.215,1.351 -2.052,1.351 -2.475,0.77 -2.543,0 L 0,0 m 1.004,-3.111 c -0.547,-0.301 -1.171,-0.458 -1.974,-0.458 -1.896,0 -3,1.094 -3,2.978 0,1.663 0.88,3.034 2.665,3.034 2.131,0 2.733,-1.46 2.733,-3.468 l -3.971,0 c 0.068,-0.926 0.714,-1.45 1.64,-1.45 0.725,0 1.349,0.267 1.907,0.579 l 0,-1.215 z"
                     style="fill:#595656;fill-opacity:1;fill-rule:nonzero;stroke:none"
                     id="path20611" />
            </g>
            <g
                 id="g20613"
                 transform="translate(74.2033,752.2986)">
                <path
                     d="m 0,0 -1.104,0 0,1.093 1.104,0 0,1.15 1.495,0.479 0,-1.629 1.327,0 0,-1.093 -1.327,0 0,-2.677 c 0,-0.49 0.134,-0.948 0.703,-0.948 0.267,0 0.524,0.056 0.68,0.156 L 2.923,-4.651 C 2.611,-4.74 2.264,-4.785 1.818,-4.785 0.647,-4.785 0,-4.06 0,-2.922 L 0,0"
                     style="fill:#595656;fill-opacity:1;fill-rule:nonzero;stroke:none"
                     id="path20615" />
            </g>
            <path
                 d="m 81.152,755.433 1.561,0 0,-7.785 -1.561,0 0,7.785 z"
                 style="fill:#595656;fill-opacity:1;fill-rule:nonzero;stroke:none"
                 id="path20617" />
            <g
                 id="g20619"
                 transform="translate(84.2514,753.3917)">
                <path
                     d="m 0,0 1.417,0 0,-0.781 0.022,0 c 0.469,0.659 1.104,0.915 1.886,0.915 1.36,0 1.951,-0.959 1.951,-2.253 l 0,-3.624 -1.494,0 0,3.066 c 0,0.703 -0.012,1.651 -0.971,1.651 -1.082,0 -1.316,-1.171 -1.316,-1.907 l 0,-2.81 L 0,-5.743 0,0"
                     style="fill:#595656;fill-opacity:1;fill-rule:nonzero;stroke:none"
                     id="path20621" />
            </g>
            <path
                 d="m 91.1,755.868 1.494,0 0,-1.428 -1.494,0 0,1.428 z m 0,-2.477 1.494,0 0,-5.743 -1.494,0 0,5.743 z"
                 style="fill:#595656;fill-opacity:1;fill-rule:nonzero;stroke:none"
                 id="path20623" />
            <g
                 id="g20625"
                 transform="translate(94.6571,752.2986)">
                <path
                     d="m 0,0 -1.104,0 0,1.093 1.104,0 0,1.15 1.495,0.479 0,-1.629 1.327,0 0,-1.093 -1.327,0 0,-2.677 c 0,-0.49 0.134,-0.948 0.703,-0.948 0.267,0 0.524,0.056 0.68,0.156 L 2.923,-4.651 C 2.611,-4.74 2.264,-4.785 1.818,-4.785 0.647,-4.785 0,-4.06 0,-2.922 L 0,0"
                     style="fill:#595656;fill-opacity:1;fill-rule:nonzero;stroke:none"
                     id="path20627" />
            </g>
            <path
                 d="m 98.539,755.868 1.495,0 0,-1.428 -1.495,0 0,1.428 z m 0,-2.477 1.495,0 0,-5.743 -1.495,0 0,5.743 z"
                 style="fill:#595656;fill-opacity:1;fill-rule:nonzero;stroke:none"
                 id="path20629" />
            <g
                 id="g20631"
                 transform="translate(103.6128,748.6068)">
                <path
                     d="m 0,0 c 0.457,0 0.813,0.201 1.049,0.514 0.245,0.323 0.312,0.735 0.312,1.182 l -0.647,0 C 0.045,1.696 -0.949,1.584 -0.949,0.703 -0.949,0.212 -0.535,0 0,0 m -1.751,4.484 c 0.58,0.267 1.361,0.435 1.996,0.435 1.752,0 2.477,-0.726 2.477,-2.42 l 0,-0.736 c 0,-0.581 0.011,-1.015 0.021,-1.439 0.013,-0.435 0.034,-0.837 0.068,-1.283 l -1.317,0 C 1.439,-0.658 1.439,-0.279 1.428,-0.1 l -0.021,0 c -0.348,-0.635 -1.095,-0.993 -1.776,-0.993 -1.014,0 -2.007,0.614 -2.007,1.707 0,0.858 0.414,1.361 0.982,1.639 0.569,0.279 1.305,0.335 1.93,0.335 l 0.825,0 c 0,0.925 -0.412,1.239 -1.293,1.239 -0.637,0 -1.273,-0.246 -1.775,-0.625 l -0.044,1.282 z"
                     style="fill:#595656;fill-opacity:1;fill-rule:nonzero;stroke:none"
                     id="path20633" />
            </g>
            <g
                 id="g20635"
                 transform="translate(108.2976,752.2986)">
                <path
                     d="m 0,0 -1.104,0 0,1.093 1.104,0 0,1.15 1.496,0.479 0,-1.629 1.327,0 0,-1.093 -1.327,0 0,-2.677 c 0,-0.49 0.133,-0.948 0.702,-0.948 0.268,0 0.524,0.056 0.68,0.156 L 2.923,-4.651 C 2.61,-4.74 2.264,-4.785 1.819,-4.785 0.648,-4.785 0,-4.06 0,-2.922 L 0,0"
                     style="fill:#595656;fill-opacity:1;fill-rule:nonzero;stroke:none"
                     id="path20637" />
            </g>
            <path
                 d="m 112.179,755.868 1.495,0 0,-1.428 -1.495,0 0,1.428 z m 0,-2.477 1.495,0 0,-5.743 -1.495,0 0,5.743 z"
                 style="fill:#595656;fill-opacity:1;fill-rule:nonzero;stroke:none"
                 id="path20639" />
            <g
                 id="g20641"
                 transform="translate(114.6115,753.3917)">
                <path
                     d="m 0,0 1.604,0 1.428,-4.183 0.023,0 L 4.438,0 5.934,0 3.814,-5.743 2.129,-5.743 0,0 Z"
                     style="fill:#595656;fill-opacity:1;fill-rule:nonzero;stroke:none"
                     id="path20643" />
            </g>
            <g
                 id="g20645"
                 transform="translate(125.0515,751.0826)">
                <path
                     d="M 0,0 C -0.046,0.727 -0.379,1.351 -1.216,1.351 -2.053,1.351 -2.475,0.77 -2.544,0 L 0,0 m 1.004,-3.111 c -0.547,-0.301 -1.172,-0.458 -1.975,-0.458 -1.896,0 -3,1.094 -3,2.978 0,1.663 0.881,3.034 2.665,3.034 2.131,0 2.734,-1.46 2.734,-3.468 l -3.972,0 c 0.069,-0.926 0.714,-1.45 1.64,-1.45 0.725,0 1.35,0.267 1.908,0.579 l 0,-1.215 z"
                     style="fill:#595656;fill-opacity:1;fill-rule:nonzero;stroke:none"
                     id="path20647" />
            </g>
            <g
                 id="g20649"
                 transform="translate(130.226,749.0086)">
                <path
                     d="m 0,0 c 0.211,-0.078 0.435,-0.134 0.747,-0.134 1.015,0 1.015,0.815 1.015,1.372 l 0,5.186 1.563,0 0,-5.933 c 0,-0.826 -0.537,-1.986 -2.132,-1.986 -0.423,0 -0.758,0.034 -1.193,0.146 L 0,0"
                     style="fill:#595656;fill-opacity:1;fill-rule:nonzero;stroke:none"
                     id="path20651" />
            </g>
            <g
                 id="g20653"
                 transform="translate(137.097,748.6068)">
                <path
                     d="m 0,0 c 0.457,0 0.814,0.201 1.049,0.514 0.246,0.323 0.312,0.735 0.312,1.182 l -0.647,0 C 0.045,1.696 -0.948,1.584 -0.948,0.703 -0.948,0.212 -0.535,0 0,0 m -1.751,4.484 c 0.58,0.267 1.361,0.435 1.996,0.435 1.752,0 2.477,-0.726 2.477,-2.42 l 0,-0.736 c 0,-0.581 0.01,-1.015 0.022,-1.439 0.011,-0.435 0.033,-0.837 0.067,-1.283 l -1.316,0 C 1.439,-0.658 1.439,-0.279 1.428,-0.1 l -0.022,0 C 1.06,-0.735 0.312,-1.093 -0.367,-1.093 c -1.016,0 -2.009,0.614 -2.009,1.707 0,0.858 0.413,1.361 0.983,1.639 0.567,0.279 1.304,0.335 1.928,0.335 l 0.826,0 c 0,0.925 -0.412,1.239 -1.294,1.239 -0.635,0 -1.272,-0.246 -1.772,-0.625 l -0.046,1.282 z"
                     style="fill:#595656;fill-opacity:1;fill-rule:nonzero;stroke:none"
                     id="path20655" />
            </g>
            <g
                 id="g20657"
                 transform="translate(142.7975,750.5361)">
                <path
                     d="m 0,0 c 0,-0.814 0.323,-1.862 1.316,-1.862 0.981,0 1.26,1.07 1.26,1.862 0,0.77 -0.267,1.829 -1.237,1.829 C 0.379,1.829 0,0.803 0,0 m -1.507,2.856 1.428,0 0,-0.814 0.023,0 C 0.279,2.6 0.848,2.99 1.729,2.99 3.491,2.99 4.137,1.584 4.137,0 c 0,-1.573 -0.646,-3.023 -2.442,-3.023 -0.635,0 -1.16,0.157 -1.684,0.794 l -0.023,0 0,-3.001 -1.495,0 0,8.086 z"
                     style="fill:#595656;fill-opacity:1;fill-rule:nonzero;stroke:none"
                     id="path20659" />
            </g>
            <g
                 id="g20661"
                 transform="translate(150.1143,748.6068)">
                <path
                     d="m 0,0 c 0.458,0 0.814,0.201 1.049,0.514 0.244,0.323 0.312,0.735 0.312,1.182 l -0.647,0 C 0.046,1.696 -0.948,1.584 -0.948,0.703 -0.948,0.212 -0.535,0 0,0 m -1.751,4.484 c 0.579,0.267 1.36,0.435 1.996,0.435 1.751,0 2.477,-0.726 2.477,-2.42 l 0,-0.736 c 0,-0.581 0.011,-1.015 0.022,-1.439 0.012,-0.435 0.033,-0.837 0.067,-1.283 l -1.316,0 C 1.439,-0.658 1.439,-0.279 1.427,-0.1 l -0.021,0 C 1.06,-0.735 0.312,-1.093 -0.369,-1.093 c -1.014,0 -2.007,0.614 -2.007,1.707 0,0.858 0.414,1.361 0.981,1.639 0.57,0.279 1.306,0.335 1.93,0.335 l 0.826,0 c 0,0.925 -0.413,1.239 -1.293,1.239 -0.637,0 -1.272,-0.246 -1.775,-0.625 l -0.044,1.282 z"
                     style="fill:#595656;fill-opacity:1;fill-rule:nonzero;stroke:none"
                     id="path20663" />
            </g>
            <g
                 id="g20665"
                 transform="translate(154.3086,753.3917)">
                <path
                     d="m 0,0 1.417,0 0,-0.781 0.021,0 c 0.469,0.659 1.105,0.915 1.886,0.915 1.361,0 1.952,-0.959 1.952,-2.253 l 0,-3.624 -1.494,0 0,3.066 c 0,0.703 -0.013,1.651 -0.971,1.651 -1.082,0 -1.317,-1.171 -1.317,-1.907 l 0,-2.81 L 0,-5.743 0,0"
                     style="fill:#595656;fill-opacity:1;fill-rule:nonzero;stroke:none"
                     id="path20667" />
            </g>
            <g
                 id="g20669"
                 transform="translate(138.9406,816.3779)">
                <path
                     d="m 0,0 -22.613,0 0,-2.021 6.783,0 0,-44.743 c 0,-2.55 -2.261,-3.752 -4.33,-3.752 -2.068,0 -3.319,1.154 -3.896,1.78 l -6.159,4.378 c 0,-3.861 3.802,-8.276 9.672,-8.276 6.061,0 13.759,4.427 13.759,12.654 l 0,37.959 6.784,0 L 0,0"
                     style="fill:#595656;fill-opacity:1;fill-rule:nonzero;stroke:none"
                     id="path20671" />
            </g>
            <g
                 id="g20673"
                 transform="translate(114.0657,766.0239)">
                <path
                     d="m 0,0 c 3.12,0 5.648,2.529 5.648,5.647 0,3.12 -2.528,5.648 -5.648,5.648 -3.119,0 -5.646,-2.528 -5.646,-5.648 C -5.646,2.529 -3.119,0 0,0"
                     style="fill:#d7083b;fill-opacity:1;fill-rule:nonzero;stroke:none"
                     id="path20675" />
            </g>
            <g
                 id="g20677"
                 transform="translate(79.1378,814.3569)">
                <path
                     d="m 0,0 0,2.021 -22.612,0 0,-2.021 6.783,0 0,-42.434 -6.783,0 0,-2.021 22.612,0 0,2.021 -6.784,0 L -6.784,0 0,0 Z"
                     style="fill:#595656;fill-opacity:1;fill-rule:nonzero;stroke:none"
                     id="path20679" />
            </g>
            <g
                 id="g20681"
                 transform="translate(106.4639,814.3569)">
                <path
                     d="m 0,0 0,2.021 -22.611,0 0,-2.021 6.783,0 0,-42.434 -6.783,0 0,-2.021 22.611,0 0,2.021 -6.782,0 L -6.782,0 0,0 Z"
                     style="fill:#595656;fill-opacity:1;fill-rule:nonzero;stroke:none"
                     id="path20683" />
            </g>
        </g>
    </g>
</svg>
